<svg width="116" height="92" viewBox="0 0 116 92" fill="none" xmlns="http://www.w3.org/2000/svg">
<g clip-path="url(#clip0)">
<path fill-rule="evenodd" clip-rule="evenodd" d="M101.325 0.412231C93.3276 0.412231 86.8145 6.88356 86.8145 14.9212C86.8145 22.9176 93.2864 29.4302 101.325 29.4302C103.674 29.4302 105.9 28.8531 107.879 27.8638L94.9353 14.9212L107.879 1.97854C105.9 0.989292 103.674 0.412231 101.325 0.412231ZM111.795 24.9373L101.778 14.9212L111.795 4.90506C114.31 7.50184 115.835 11.0466 115.835 14.9212C115.835 18.7957 114.269 22.3405 111.795 24.9373Z" fill="#D22730"/>
<path fill-rule="evenodd" clip-rule="evenodd" d="M57.9173 0C52.2699 0 47.3644 3.21505 44.9735 7.9552H70.8612C68.4291 3.21505 63.5648 0 57.9173 0ZM43.5307 12.7778C43.4482 13.3548 43.4482 13.9319 43.4482 14.509C43.4482 19.2491 45.7155 23.4534 49.2606 26.0914L56.8868 12.7778H43.5307ZM53.5065 28.3172L62.4518 12.7778H72.304C72.3864 13.3548 72.3864 13.9319 72.3864 14.509C72.3864 22.5054 65.9145 29.0179 57.8761 29.0179C56.3509 28.9767 54.8669 28.7294 53.5065 28.3172Z" fill="#D22730"/>
<path fill-rule="evenodd" clip-rule="evenodd" d="M14.5103 0C8.86283 0 3.95736 3.21505 1.56645 7.9552H27.4542C25.022 3.21505 20.1578 0 14.5103 0ZM0.0824449 12.7778C0.0412225 13.3548 0 13.9319 0 14.509C0 19.2491 2.26724 23.4534 5.81237 26.0914L13.4797 12.7778H0.0824449ZM10.0995 28.3172L19.0448 12.7778H28.8969C28.9794 13.3548 28.9794 13.9319 28.9794 14.509C28.9794 22.5054 22.5075 29.0179 14.4691 29.0179C12.9439 28.9767 11.4598 28.7294 10.0995 28.3172Z" fill="#D22730"/>
<path fill-rule="evenodd" clip-rule="evenodd" d="M48.9307 44.1451H36.6051L34.7089 52.8011C34.3379 54.5322 33.4722 55.2742 32.1943 55.6039L33.802 58.6953C36.3578 57.8709 38.2953 56.3459 38.996 53.3369L40.2739 47.6487H43.4893L41.758 58.4892H46.6634L48.9307 44.1451Z" fill="white"/>
<path fill-rule="evenodd" clip-rule="evenodd" d="M79.394 46.4533C79.2291 47.525 79.0642 48.5967 78.8993 49.6272C77.4566 49.6272 76.0138 49.6272 74.571 49.6272C74.7771 48.4318 74.9832 47.1953 75.1893 45.9999C75.2718 45.3816 75.3542 44.7634 75.4367 44.1451C72.5923 44.1039 70.7373 43.7741 70.2839 46.3709L68.3052 58.4067H73.1282L74.0351 52.8834H78.3635L77.4978 58.4067H82.2796C82.9391 54.2849 83.5987 50.1218 84.2583 45.9999C84.2995 45.7938 84.5468 44.0626 84.4232 44.1039C81.2902 44.1451 79.8062 43.7329 79.394 46.4533Z" fill="white"/>
<path fill-rule="evenodd" clip-rule="evenodd" d="M22.5075 54.6971C22.0952 55.1917 20.3227 56.0161 19.6631 56.1809L21.0647 59.1075C23.8266 58.7365 25.6816 57.0053 26.7122 55.5627C28.9382 52.4713 31.123 47.4838 33.0604 44.1863H28.5672L24.7747 51.0698L23.2495 45.7938C22.8785 44.4748 21.8891 44.1039 20.1166 44.1039C19.3333 44.1039 18.4264 44.2688 17.8081 44.5573L20.8173 53.172C21.1059 53.8727 21.8891 54.5322 22.5075 54.6971Z" fill="white"/>
<path fill-rule="evenodd" clip-rule="evenodd" d="M56.6393 54.6971C56.2271 55.1917 54.4545 56.0161 53.795 56.1809L55.1965 59.1075C57.9584 58.7365 59.8134 57.0053 60.844 55.5627C63.07 52.4713 65.2548 47.4838 67.1922 44.1863H62.699L58.9065 51.0698L57.3813 45.7938C57.0103 44.4748 56.021 44.1039 54.2484 44.1039C53.4652 44.1039 52.5583 44.2688 51.9399 44.5573L54.9492 53.172C55.1965 53.8727 55.9797 54.5322 56.6393 54.6971Z" fill="white"/>
<path fill-rule="evenodd" clip-rule="evenodd" d="M14.7987 44.3511H0.576908L0.0410156 47.6074H4.74038L2.92659 58.2418H7.70839L9.56341 47.6074H14.2628L14.7987 44.3511Z" fill="white"/>
<path fill-rule="evenodd" clip-rule="evenodd" d="M19.2504 74.5646C19.8276 74.647 20.4459 74.6882 21.0642 74.6882C25.1453 74.6882 28.6079 73.328 28.6079 69.6183C28.6079 67.1452 26.7941 65.6201 23.4139 65.6201C18.0138 65.6201 14.8809 69.4535 14.8809 74.3997C14.8809 77.9857 17.1069 80.0466 21.1879 80.0466C23.4139 80.0466 25.475 79.552 27.3713 78.4803L25.846 75.4714C23.7849 76.5431 19.3329 77.8208 19.2504 74.5646ZM22.6307 68.9176C23.5788 68.9176 24.0322 69.4122 24.0322 70.113C24.0322 71.5556 22.5895 72.2975 20.8993 72.2975C20.4871 72.2975 19.9924 72.2563 19.4978 72.2563C19.9512 70.319 20.9818 68.9176 22.6307 68.9176Z" fill="white"/>
<path fill-rule="evenodd" clip-rule="evenodd" d="M46.2925 65.5375H34.4204L32.6479 74.0698C32.2769 75.801 31.3288 76.4193 30.1333 76.749L31.7822 80.0053C34.2555 79.1809 36.1518 77.697 36.7701 74.6881L38.0068 68.7114H41.1397L39.4496 79.758H44.1902L46.2925 65.5375Z" fill="white"/>
<path fill-rule="evenodd" clip-rule="evenodd" d="M52.6411 74.482C53.2182 74.5644 53.8365 74.6056 54.4549 74.6056C58.5359 74.6056 61.9986 73.2454 61.9986 69.5357C61.9986 67.0626 60.1848 65.5375 56.8045 65.5375C51.4044 65.5375 48.2715 69.3709 48.2715 74.3171C48.2715 77.9031 50.4975 79.9641 54.5785 79.9641C56.8045 79.9641 58.8657 79.4694 60.7619 78.3977L59.2367 75.3064C57.3816 76.378 53.177 78.1092 52.6411 74.482ZM56.0625 68.835C57.0106 68.835 57.4641 69.3296 57.4641 70.0304C57.4641 71.473 56.0213 72.215 54.3312 72.215C53.919 72.215 53.4243 72.1737 52.9296 72.1737C53.3418 70.2777 54.3724 68.835 56.0625 68.835Z" fill="white"/>
<path fill-rule="evenodd" clip-rule="evenodd" d="M70.0782 67.0628C70.0782 66.1147 69.5011 65.5377 68.3881 65.5377L65.7086 65.5789L63.4414 79.7169H68.1408L70.0782 67.3925C70.0782 67.1864 70.0782 67.1452 70.0782 67.0628ZM80.0128 65.4965L74.3654 72.009L79.0647 79.4284C77.9517 79.8818 77.0036 79.9642 76.0555 79.9642C74.2417 79.9642 73.4997 79.4284 72.9638 78.5215L69.3774 72.38L75.4371 65.5377L80.0128 65.4965Z" fill="white"/>
<path fill-rule="evenodd" clip-rule="evenodd" d="M87.7212 80.0053C93.1213 80.0053 96.2543 76.5429 96.2543 71.5142C96.2543 67.7633 93.9458 65.5375 89.6174 65.5375C84.1348 65.5375 80.7134 69.0411 80.7134 74.0698C80.7546 77.7795 83.3516 80.0053 87.7212 80.0053ZM88.0922 76.5841C86.6082 76.5841 85.7425 75.6361 85.7425 73.9049C85.7425 71.5967 86.8555 68.8763 89.164 68.8763C90.7717 68.8763 91.5549 69.8655 91.5549 71.5555C91.5549 73.9874 90.4007 76.5841 88.0922 76.5841Z" fill="white"/>
<path fill-rule="evenodd" clip-rule="evenodd" d="M113.815 65.5375C113.196 65.5375 112.207 65.7436 111.63 66.0734L108.002 74.6881L106.848 67.2275C106.683 65.9497 105.488 65.5375 103.798 65.5375C103.097 65.5375 102.149 65.7848 101.613 66.0734L97.9854 79.7168H101.613L103.798 71.1845L104.746 79.7168H108.209L111.795 71.2669L111.259 79.7168H115.752L116.041 65.5375H113.815Z" fill="white"/>
<path fill-rule="evenodd" clip-rule="evenodd" d="M14.2215 65.4552H0.576908L0.0410156 68.7939H4.57549L2.80292 79.552H7.41984L9.1924 68.7939H13.7269L14.2215 65.4552Z" fill="white"/>
<path fill-rule="evenodd" clip-rule="evenodd" d="M82.6508 89.1971C82.8981 89.1971 83.063 89.1147 83.2279 88.9498C83.3928 88.7849 83.434 88.5788 83.434 88.3727C83.434 88.1254 83.3516 87.9193 83.2279 87.7957C83.063 87.6308 82.8981 87.5483 82.6508 87.5483H81.7027V89.1971H82.6508ZM82.6508 87.0537C83.0218 87.0537 83.3516 87.1774 83.5989 87.4247C83.8463 87.672 83.9699 88.0017 83.9699 88.3727C83.9699 88.7437 83.8463 89.0734 83.5989 89.3207C83.3516 89.5681 83.0218 89.6917 82.6508 89.6917H81.7027V91.1756H81.1668V87.0125H82.6508V87.0537ZM77.2919 90.681H79.2293V91.2168H76.756V87.0537H79.1881V87.5896H77.2919V88.8673H79.0232V89.4032H77.2919V90.681ZM71.933 90.681H73.788V87.5483H72.2628V89.2383C72.2628 89.8566 72.1391 90.3512 71.933 90.681ZM74.3651 90.681H74.8186V92H74.2827V91.2168H71.562V92H71.0261V90.681H71.3971C71.6444 90.3512 71.7681 89.8566 71.7681 89.1971V87.0125H74.4063V90.681H74.3651ZM68.594 91.2168V88.1254L66.4504 91.2168H65.9969V87.0537H66.5328V90.1863L68.6764 87.0537H69.1298V91.2168H68.594ZM66.7802 86.6003V86.1469H68.3878V86.6003H66.7802ZM61.6274 89.7742H63.1114L62.3694 87.7132L61.6274 89.7742ZM63.6473 91.2168L63.3175 90.2688H61.4625L61.1327 91.2168H60.5556L62.0808 87.0537H62.6992L64.2244 91.2168H63.6473ZM57.7525 90.681C57.9173 90.681 58.0822 90.5985 58.2059 90.4749C58.3296 90.3512 58.412 90.1863 58.412 89.9802C58.412 89.8154 58.3296 89.6505 58.2059 89.4856C58.0822 89.362 57.9173 89.2795 57.7525 89.2795H56.5158V90.6397H57.7525V90.681ZM57.6288 87.5483H56.5158V88.8261H57.6288C57.7937 88.8261 57.9586 88.7849 58.0822 88.6612C58.2059 88.5376 58.2471 88.3727 58.2471 88.2078C58.2471 88.043 58.2059 87.8781 58.0822 87.7544C57.9586 87.6308 57.7937 87.5483 57.6288 87.5483ZM58.3296 89.0322C58.5357 89.1147 58.6593 89.2383 58.783 89.4444C58.9067 89.6093 58.9479 89.8154 58.9479 90.0215C58.9479 90.3512 58.8242 90.6397 58.6181 90.8458C58.3708 91.0519 58.0822 91.1756 57.7525 91.1756H55.9799V87.0125H57.6288C57.9586 87.0125 58.2059 87.1362 58.4532 87.3422C58.6593 87.5483 58.783 87.8369 58.783 88.1666C58.783 88.5376 58.6593 88.8261 58.3296 89.0322ZM50.7446 90.2688C51.0332 90.5985 51.4454 90.7222 51.8989 90.7222C52.3523 90.7222 52.7233 90.5573 53.0531 90.2688C53.3416 89.939 53.5065 89.5681 53.5065 89.1147C53.5065 88.6612 53.3416 88.2491 53.0531 87.9605C52.7645 87.6308 52.3523 87.5071 51.8989 87.5071C51.4454 87.5071 51.0744 87.672 50.7446 87.9605C50.4561 88.2903 50.2912 88.6612 50.2912 89.1147C50.2912 89.5681 50.4561 89.9802 50.7446 90.2688ZM53.3829 90.6397C52.9706 91.0519 52.476 91.258 51.8576 91.258C51.2393 91.258 50.7446 91.0519 50.3324 90.6397C49.9202 90.2276 49.7141 89.6917 49.7141 89.1147C49.7141 88.4964 49.9202 88.0017 50.3324 87.5896C50.7446 87.1774 51.2393 86.9713 51.8576 86.9713C52.476 86.9713 52.9706 87.1774 53.3829 87.5896C53.7951 88.0017 54.0012 88.5376 54.0012 89.1147C54.0424 89.7329 53.7951 90.2276 53.3829 90.6397ZM46.7048 89.1971C46.9522 89.1971 47.1171 89.1147 47.2819 88.9498C47.4468 88.7849 47.4881 88.5788 47.4881 88.3727C47.4881 88.1254 47.4056 87.9193 47.2819 87.7957C47.1171 87.6308 46.9522 87.5483 46.7048 87.5483H45.7567V89.1971H46.7048ZM46.7048 87.0537C47.0758 87.0537 47.4056 87.1774 47.653 87.4247C47.9003 87.672 48.024 88.0017 48.024 88.3727C48.024 88.7437 47.9003 89.0734 47.653 89.3207C47.4056 89.5681 47.0758 89.6917 46.7048 89.6917H45.7567V91.1756H45.2208V87.0125H46.7048V87.0537ZM42.9948 87.0537V91.2168H42.4589V87.5896H40.5627V91.2168H40.0268V87.0537H42.9948ZM36.6878 87.0537V87.5896H35.4511V91.2168H34.9152V87.5896H33.6785V87.0537H36.6878ZM30.1746 90.681H32.1121V91.2168H29.6387V87.0537H32.0709V87.5896H30.1746V88.8673H31.906V89.4032H30.1746V90.681ZM26.8768 87.0537H27.4127V91.2168H26.8768V89.362H24.8569V91.2168H24.321V87.0537H24.8569V88.8261H26.8768V87.0537ZM21.0232 89.1971C21.2706 89.1971 21.4355 89.1147 21.6004 88.9498C21.7653 88.7849 21.8065 88.5788 21.8065 88.3727C21.8065 88.1254 21.724 87.9193 21.6004 87.7957C21.4355 87.6308 21.2706 87.5483 21.0232 87.5483H20.0751V89.1971H21.0232ZM21.0232 87.0537C21.3942 87.0537 21.724 87.1774 21.9714 87.4247C22.2187 87.672 22.3424 88.0017 22.3424 88.3727C22.3424 88.7437 22.2187 89.0734 21.9714 89.3207C21.724 89.5681 21.3942 89.6917 21.0232 89.6917H20.0751V91.1756H19.5392V87.0125H21.0232V87.0537ZM15.6643 90.681H17.6018V91.2168H15.1284V87.0537H17.5606V87.5896H15.6643V88.8673H17.3957V89.4032H15.6643V90.681ZM13.2734 87.0537V87.5896H12.0368V91.2168H11.5009V87.5896H10.2642V87.0537H13.2734ZM7.87328 87.0537H8.40917V91.2168H7.87328V89.362H5.85338V91.2168H5.31749V87.0537H5.85338V88.8261H7.87328V87.0537ZM2.59681 91.2168V88.1254L0.45324 91.2168H0.0410156V87.0537H0.576908V90.1863L2.72048 87.0537H3.17392V91.2168H2.59681Z" fill="white"/>
</g>
<defs>
<clipPath id="clip0">
<rect width="116" height="92" fill="white"/>
</clipPath>
</defs>
</svg>
