<svg width="116" height="30" viewBox="0 0 116 30" fill="none" xmlns="http://www.w3.org/2000/svg">
<path fill-rule="evenodd" clip-rule="evenodd" d="M101.325 0.412231C93.3276 0.412231 86.8145 6.88356 86.8145 14.9212C86.8145 22.9176 93.2864 29.4302 101.325 29.4302C103.674 29.4302 105.9 28.8531 107.879 27.8638L94.9353 14.9212L107.879 1.97854C105.9 0.989292 103.674 0.412231 101.325 0.412231ZM111.795 24.9373L101.778 14.9212L111.795 4.90506C114.31 7.50184 115.835 11.0466 115.835 14.9212C115.835 18.7957 114.269 22.3405 111.795 24.9373Z" fill="#D22730"/>
<path fill-rule="evenodd" clip-rule="evenodd" d="M57.9173 0C52.2699 0 47.3644 3.21505 44.9735 7.9552H70.8612C68.4291 3.21505 63.5648 0 57.9173 0ZM43.5307 12.7778C43.4482 13.3548 43.4482 13.9319 43.4482 14.509C43.4482 19.2491 45.7155 23.4534 49.2606 26.0914L56.8868 12.7778H43.5307ZM53.5065 28.3172L62.4518 12.7778H72.304C72.3864 13.3548 72.3864 13.9319 72.3864 14.509C72.3864 22.5054 65.9145 29.0179 57.8761 29.0179C56.3509 28.9767 54.8669 28.7294 53.5065 28.3172Z" fill="#D22730"/>
<path fill-rule="evenodd" clip-rule="evenodd" d="M14.5103 0C8.86283 0 3.95736 3.21505 1.56645 7.9552H27.4542C25.022 3.21505 20.1578 0 14.5103 0ZM0.0824449 12.7778C0.0412225 13.3548 0 13.9319 0 14.509C0 19.2491 2.26724 23.4534 5.81237 26.0914L13.4797 12.7778H0.0824449ZM10.0995 28.3172L19.0448 12.7778H28.8969C28.9794 13.3548 28.9794 13.9319 28.9794 14.509C28.9794 22.5054 22.5075 29.0179 14.4691 29.0179C12.9439 28.9767 11.4598 28.7294 10.0995 28.3172Z" fill="#D22730"/>
</svg>
