<svg width="40" height="41" viewBox="0 0 40 41" fill="none" xmlns="http://www.w3.org/2000/svg">
<path d="M20 40.2183C31.0457 40.2183 40 31.264 40 20.2183C40 9.17257 31.0457 0.218262 20 0.218262C8.9543 0.218262 0 9.17257 0 20.2183C0 31.264 8.9543 40.2183 20 40.2183Z" fill="#D22730"/>
<g clip-path="url(#clip0)">
<path d="M22.4362 33.2183V21.8154H26.2622L26.8362 17.3702H22.4362V14.5326C22.4362 13.246 22.792 12.3692 24.6391 12.3692L26.991 12.3682V8.3923C26.5843 8.33944 25.1881 8.21826 23.5631 8.21826C20.1699 8.21826 17.8468 10.2895 17.8468 14.0923V17.3702H14.0093V21.8154H17.8468V33.2183H22.4362Z" fill="white"/>
</g>
<defs>
<clipPath id="clip0">
<rect width="25" height="25" fill="white" transform="translate(8 8.21826)"/>
</clipPath>
</defs>
</svg>
