<svg width="40" height="41" viewBox="0 0 40 41" fill="none" xmlns="http://www.w3.org/2000/svg">
<path d="M20 40.2183C31.0457 40.2183 40 31.264 40 20.2183C40 9.17257 31.0457 0.218262 20 0.218262C8.9543 0.218262 0 9.17257 0 20.2183C0 31.264 8.9543 40.2183 20 40.2183Z" fill="#D22730"/>
<path d="M24.6272 8.77032H15.3729C11.6119 8.77032 8.55225 11.83 8.55225 15.591V24.8452C8.55225 28.606 11.6119 31.666 15.3729 31.666H24.6272C28.388 31.666 31.4479 28.6062 31.4479 24.8452V15.591C31.4479 11.83 28.3881 8.77032 24.6272 8.77032ZM29.1446 24.8453C29.1446 27.3402 27.1221 29.3627 24.6272 29.3627H15.3729C12.8781 29.3627 10.8556 27.3402 10.8556 24.8453V15.591C10.8556 13.0962 12.8781 11.0736 15.3729 11.0736H24.6272C27.1221 11.0736 29.1446 13.0963 29.1446 15.591V24.8453Z" fill="white"/>
<path d="M19.9998 14.2955C16.7347 14.2955 14.0781 16.9521 14.0781 20.2173C14.0781 23.4822 16.7347 26.1387 19.9998 26.1387C23.265 26.1387 25.9213 23.4824 25.9213 20.2173C25.9213 16.9521 23.265 14.2955 19.9998 14.2955ZM19.9998 23.8355C18.0015 23.8355 16.3814 22.2157 16.3814 20.2173C16.3814 18.2188 18.0015 16.5988 19.9998 16.5988C21.9982 16.5988 23.618 18.2187 23.618 20.2173C23.618 22.2156 21.9982 23.8355 19.9998 23.8355Z" fill="white"/>
</svg>
