<svg width="40" height="41" viewBox="0 0 40 41" fill="none" xmlns="http://www.w3.org/2000/svg">
<rect y="0.218262" width="40" height="40" rx="20" fill="#D22730"/>
<path d="M20 8.9325C16.6863 8.9325 14 11.3949 14 14.4324C14 17.4699 16.6863 19.9325 20 19.9325C23.3137 19.9325 26 17.4699 26 14.4324C26 11.3949 23.3137 8.9325 20 8.9325ZM20 16.7061C18.6302 16.7061 17.5197 15.6881 17.5197 14.4325C17.5197 13.1768 18.6302 12.1589 20 12.1589C21.3698 12.1589 22.4803 13.1768 22.4803 14.4325C22.4803 15.6881 21.3698 16.7061 20 16.7061Z" fill="white"/>
<path d="M21.9354 24.7242C24.1852 24.2635 25.5334 23.1926 25.6047 23.1352C26.2631 22.6045 26.3688 21.6379 25.8408 20.9761C25.313 20.3144 24.3514 20.2081 23.6929 20.7387C23.6789 20.75 22.241 21.8587 19.8751 21.8603C17.5092 21.8587 16.0409 20.75 16.027 20.7387C15.3685 20.2081 14.4069 20.3144 13.879 20.9761C13.351 21.6379 13.4568 22.6045 14.1151 23.1352C14.1874 23.1934 15.5912 24.2922 17.9041 24.7421L14.6807 28.128C14.0949 28.7387 14.1125 29.7109 14.72 30.2997C15.0165 30.5871 15.3987 30.7299 15.7806 30.7299C16.1809 30.7299 16.5808 30.5727 16.8806 30.2601L19.8752 27.0538L23.1721 30.2809C23.7695 30.8804 24.7368 30.8794 25.3331 30.2792C25.9293 29.6789 25.9286 28.7065 25.3314 28.1072L21.9354 24.7242Z" fill="white"/>
<path d="M19.8759 21.8602C19.8695 21.8602 19.8821 21.8603 19.8759 21.8604C19.8696 21.8603 19.8823 21.8602 19.8759 21.8602Z" fill="white"/>
</svg>
