<svg width="40" height="41" viewBox="0 0 40 41" fill="none" xmlns="http://www.w3.org/2000/svg">
<path d="M20 40.2183C31.0457 40.2183 40 31.264 40 20.2183C40 9.17257 31.0457 0.218262 20 0.218262C8.9543 0.218262 0 9.17257 0 20.2183C0 31.264 8.9543 40.2183 20 40.2183Z" fill="#D22730"/>
<path d="M30.791 26.6582C30.7626 26.5971 30.7362 26.5465 30.7116 26.5058C30.3054 25.7742 29.5291 24.8761 28.3831 23.8114L28.3589 23.787L28.3468 23.775L28.3345 23.7628H28.3222C27.8021 23.267 27.4728 22.9336 27.3349 22.7629C27.0825 22.4378 27.026 22.1087 27.1639 21.7753C27.2613 21.5233 27.6273 20.9913 28.2611 20.1784C28.5945 19.7476 28.8585 19.4023 29.0535 19.1422C30.4596 17.2728 31.0693 16.0782 30.8822 15.558L30.8096 15.4364C30.7608 15.3632 30.6348 15.2963 30.4319 15.2352C30.2284 15.1743 29.9684 15.1642 29.6514 15.2048L26.1404 15.2291C26.0835 15.2089 26.0023 15.2108 25.8965 15.2352C25.7908 15.2596 25.7379 15.2719 25.7379 15.2719L25.6768 15.3024L25.6283 15.3391C25.5877 15.3633 25.543 15.406 25.4942 15.467C25.4456 15.5277 25.405 15.5991 25.3726 15.6803C24.9903 16.6637 24.5557 17.5781 24.0679 18.4233C23.7672 18.9273 23.491 19.3641 23.2388 19.7339C22.9869 20.1036 22.7756 20.376 22.605 20.5506C22.4342 20.7254 22.2801 20.8654 22.1416 20.9711C22.0034 21.077 21.8979 21.1217 21.8248 21.1053C21.7516 21.089 21.6826 21.0727 21.6174 21.0565C21.5036 20.9833 21.4122 20.8838 21.3432 20.7578C21.274 20.6319 21.2273 20.4733 21.2029 20.2823C21.1787 20.0912 21.1643 19.9268 21.1602 19.7886C21.1564 19.6505 21.1582 19.4552 21.1664 19.2033C21.1749 18.9512 21.1787 18.7807 21.1787 18.6913C21.1787 18.3824 21.1847 18.0472 21.1968 17.6855C21.2091 17.3238 21.219 17.0372 21.2274 16.8261C21.2357 16.6148 21.2395 16.3912 21.2395 16.1555C21.2395 15.9198 21.2251 15.735 21.1968 15.6008C21.1688 15.4668 21.1258 15.3367 21.0691 15.2107C21.0121 15.0847 20.9287 14.9872 20.8192 14.9181C20.7095 14.849 20.5731 14.7942 20.4108 14.7534C19.98 14.6559 19.4314 14.6032 18.7648 14.595C17.2532 14.5788 16.2819 14.6764 15.8511 14.8877C15.6805 14.977 15.526 15.099 15.3879 15.2533C15.2416 15.4322 15.2212 15.5298 15.3268 15.5458C15.8145 15.6189 16.1598 15.7937 16.363 16.07L16.4363 16.2164C16.4932 16.3221 16.5501 16.5091 16.607 16.7772C16.6638 17.0454 16.7005 17.342 16.7167 17.667C16.7572 18.2604 16.7572 18.7684 16.7167 19.1909C16.676 19.6137 16.6375 19.9428 16.6009 20.1785C16.5642 20.4142 16.5094 20.6052 16.4363 20.7514C16.363 20.8977 16.3143 20.9871 16.2899 21.0196C16.2655 21.052 16.2452 21.0725 16.229 21.0805C16.1234 21.121 16.0135 21.1416 15.8998 21.1416C15.7859 21.1416 15.6478 21.0846 15.4853 20.9708C15.3228 20.857 15.1542 20.7006 14.9794 20.5014C14.8047 20.3022 14.6076 20.0239 14.388 19.6663C14.1687 19.3087 13.9411 18.8861 13.7054 18.3985L13.5104 18.0448C13.3885 17.8173 13.2219 17.4861 13.0106 17.0513C12.7992 16.6164 12.6123 16.1957 12.4498 15.7894C12.3848 15.6187 12.2873 15.4888 12.1572 15.3993L12.0962 15.3627C12.0557 15.3302 11.9905 15.2958 11.9012 15.259C11.8118 15.2224 11.7184 15.196 11.6208 15.1799L8.28039 15.2041C7.93905 15.2041 7.70744 15.2814 7.58549 15.4359L7.53668 15.509C7.5123 15.5496 7.5 15.6146 7.5 15.7041C7.5 15.7935 7.52438 15.9033 7.57319 16.0332C8.06083 17.1793 8.59112 18.2846 9.16408 19.3493C9.73703 20.414 10.2349 21.2716 10.6574 21.9214C11.08 22.5717 11.5108 23.1854 11.9497 23.7623C12.3886 24.3394 12.6792 24.7092 12.8213 24.8717C12.9636 25.0345 13.0754 25.1562 13.1567 25.2374L13.4615 25.53C13.6566 25.7251 13.943 25.9587 14.321 26.2309C14.699 26.5033 15.1175 26.7715 15.5767 27.0358C16.036 27.2998 16.5703 27.5152 17.1799 27.6817C17.7895 27.8485 18.3828 27.9154 18.9598 27.8831H20.3619C20.6462 27.8586 20.8616 27.7691 21.0081 27.6148L21.0566 27.5537C21.0892 27.5052 21.1197 27.4298 21.1479 27.3284C21.1764 27.2268 21.1906 27.1149 21.1906 26.9932C21.1823 26.6438 21.2089 26.3289 21.2697 26.0485C21.3304 25.7682 21.3997 25.5569 21.4772 25.4146C21.5546 25.2724 21.6419 25.1524 21.7392 25.0551C21.8366 24.9576 21.906 24.8986 21.9468 24.8782C21.9873 24.8578 22.0196 24.8439 22.044 24.8356C22.239 24.7706 22.4686 24.8335 22.733 25.0247C22.9972 25.2157 23.245 25.4515 23.4767 25.7318C23.7084 26.0124 23.9867 26.3271 24.3117 26.6765C24.637 27.0261 24.9214 27.2859 25.1651 27.4568L25.4088 27.6031C25.5716 27.7007 25.7829 27.7901 26.0431 27.8714C26.3027 27.9526 26.5302 27.9729 26.7256 27.9323L29.8464 27.8837C30.1551 27.8837 30.3953 27.8325 30.5657 27.7311C30.7364 27.6296 30.8378 27.5176 30.8705 27.3959C30.9032 27.274 30.9049 27.1358 30.8767 26.9812C30.8478 26.827 30.8193 26.7192 30.791 26.6582Z" fill="white"/>
</svg>
