<svg width="116" height="48" viewBox="0 0 116 48" fill="none" xmlns="http://www.w3.org/2000/svg">
<path fill-rule="evenodd" clip-rule="evenodd" d="M48.9316 0.145142H36.6061L34.7099 8.80106C34.3389 10.5322 33.4732 11.2742 32.1953 11.6039L33.803 14.6953C36.3588 13.8709 38.2962 12.3459 38.997 9.3369L40.2749 3.64873H43.4903L41.7589 14.4892H46.6644L48.9316 0.145142Z" fill="white"/>
<path fill-rule="evenodd" clip-rule="evenodd" d="M79.3935 2.45339C79.2286 3.52507 79.0637 4.59676 78.8989 5.62722C77.4561 5.62722 76.0133 5.62722 74.5705 5.62722C74.7766 4.43188 74.9827 3.19532 75.1888 1.99998C75.2713 1.3817 75.3537 0.763424 75.4362 0.145144C72.5918 0.103926 70.7368 -0.225823 70.2834 2.37095L68.3047 14.4068H73.1277L74.0346 8.8835H78.363L77.4973 14.4068H82.2791C82.9387 10.2849 83.5982 6.12185 84.2578 1.99998C84.299 1.79389 84.5463 0.0627079 84.4227 0.103926C81.2898 0.145145 79.8058 -0.267042 79.3935 2.45339Z" fill="white"/>
<path fill-rule="evenodd" clip-rule="evenodd" d="M22.508 10.6971C22.0957 11.1917 20.3232 12.0161 19.6636 12.1809L21.0652 15.1075C23.8271 14.7365 25.6821 13.0053 26.7126 11.5627C28.9387 8.47126 31.1234 3.48381 33.0609 0.186318H28.5677L24.7752 7.06983L23.25 1.79385C22.879 0.474849 21.8896 0.103882 20.1171 0.103882C19.3338 0.103882 18.4269 0.268756 17.8086 0.557286L20.8178 9.17198C21.1064 9.8727 21.8896 10.5322 22.508 10.6971Z" fill="white"/>
<path fill-rule="evenodd" clip-rule="evenodd" d="M56.6388 10.6971C56.2266 11.1917 54.454 12.0161 53.7945 12.1809L55.196 15.1075C57.9579 14.7365 59.8129 13.0053 60.8435 11.5627C63.0695 8.47126 65.2543 3.48381 67.1918 0.186318H62.6985L58.906 7.06983L57.3808 1.79385C57.0098 0.474849 56.0205 0.103882 54.2479 0.103882C53.4647 0.103882 52.5578 0.268756 51.9395 0.557286L54.9487 9.17198C55.196 9.8727 55.9792 10.5322 56.6388 10.6971Z" fill="white"/>
<path fill-rule="evenodd" clip-rule="evenodd" d="M14.7987 0.351196H0.576908L0.0410156 3.60747H4.74038L2.92659 14.2419H7.70839L9.56341 3.60747H14.2628L14.7987 0.351196Z" fill="white"/>
<path fill-rule="evenodd" clip-rule="evenodd" d="M19.2504 30.5646C19.8276 30.647 20.4459 30.6882 21.0642 30.6882C25.1453 30.6882 28.6079 29.328 28.6079 25.6183C28.6079 23.1452 26.7941 21.6201 23.4139 21.6201C18.0138 21.6201 14.8809 25.4535 14.8809 30.3997C14.8809 33.9857 17.1069 36.0466 21.1879 36.0466C23.4139 36.0466 25.475 35.552 27.3713 34.4803L25.846 31.4714C23.7849 32.5431 19.3329 33.8208 19.2504 30.5646ZM22.6307 24.9176C23.5788 24.9176 24.0322 25.4122 24.0322 26.113C24.0322 27.5556 22.5895 28.2975 20.8993 28.2975C20.4871 28.2975 19.9924 28.2563 19.4978 28.2563C19.9512 26.319 20.9818 24.9176 22.6307 24.9176Z" fill="white"/>
<path fill-rule="evenodd" clip-rule="evenodd" d="M46.292 21.5376H34.4199L32.6474 30.0699C32.2764 31.801 31.3283 32.4193 30.1328 32.7491L31.7817 36.0053C34.2551 35.181 36.1513 33.6971 36.7696 30.6881L38.0063 24.7114H41.1392L39.4491 35.758H44.1897L46.292 21.5376Z" fill="white"/>
<path fill-rule="evenodd" clip-rule="evenodd" d="M52.6411 30.482C53.2182 30.5645 53.8365 30.6057 54.4549 30.6057C58.5359 30.6057 61.9986 29.2455 61.9986 25.5358C61.9986 23.0627 60.1848 21.5376 56.8045 21.5376C51.4044 21.5376 48.2715 25.3709 48.2715 30.3172C48.2715 33.9032 50.4975 35.9641 54.5785 35.9641C56.8045 35.9641 58.8657 35.4695 60.7619 34.3978L59.2367 31.3064C57.3816 32.3781 53.177 34.1093 52.6411 30.482ZM56.0625 24.8351C57.0106 24.8351 57.4641 25.3297 57.4641 26.0304C57.4641 27.4731 56.0213 28.215 54.3312 28.215C53.919 28.215 53.4243 28.1738 52.9296 28.1738C53.3418 26.2777 54.3724 24.8351 56.0625 24.8351Z" fill="white"/>
<path fill-rule="evenodd" clip-rule="evenodd" d="M70.0782 23.0628C70.0782 22.1147 69.5011 21.5377 68.3881 21.5377L65.7086 21.5789L63.4414 35.7169H68.1408L70.0782 23.3925C70.0782 23.1864 70.0782 23.1452 70.0782 23.0628ZM80.0128 21.4965L74.3654 28.009L79.0647 35.4284C77.9517 35.8818 77.0036 35.9642 76.0555 35.9642C74.2417 35.9642 73.4997 35.4284 72.9638 34.5215L69.3774 28.38L75.4371 21.5377L80.0128 21.4965Z" fill="white"/>
<path fill-rule="evenodd" clip-rule="evenodd" d="M87.7207 36.0053C93.1209 36.0053 96.2538 32.543 96.2538 27.5143C96.2538 23.7634 93.9453 21.5376 89.6169 21.5376C84.1344 21.5376 80.7129 25.0412 80.7129 30.0699C80.7541 33.7795 83.3511 36.0053 87.7207 36.0053ZM88.0917 32.5842C86.6077 32.5842 85.742 31.6362 85.742 29.905C85.742 27.5967 86.855 24.8763 89.1635 24.8763C90.7712 24.8763 91.5544 25.8656 91.5544 27.5555C91.5544 29.9874 90.4002 32.5842 88.0917 32.5842Z" fill="white"/>
<path fill-rule="evenodd" clip-rule="evenodd" d="M113.816 21.5376C113.197 21.5376 112.208 21.7437 111.631 22.0734L108.003 30.6881L106.849 23.2276C106.684 21.9498 105.489 21.5376 103.799 21.5376C103.098 21.5376 102.15 21.7849 101.614 22.0734L97.9863 35.7168H101.614L103.799 27.1846L104.747 35.7168H108.209L111.796 27.267L111.26 35.7168H115.753L116.042 21.5376H113.816Z" fill="white"/>
<path fill-rule="evenodd" clip-rule="evenodd" d="M14.2215 21.4552H0.576908L0.0410156 24.7939H4.57549L2.80292 35.552H7.41984L9.1924 24.7939H13.7269L14.2215 21.4552Z" fill="white"/>
<path fill-rule="evenodd" clip-rule="evenodd" d="M82.6508 45.1971C82.8981 45.1971 83.063 45.1147 83.2279 44.9498C83.3928 44.785 83.434 44.5789 83.434 44.3728C83.434 44.1255 83.3516 43.9194 83.2279 43.7957C83.063 43.6308 82.8981 43.5484 82.6508 43.5484H81.7027V45.1971H82.6508ZM82.6508 43.0538C83.0218 43.0538 83.3516 43.1774 83.5989 43.4248C83.8463 43.6721 83.9699 44.0018 83.9699 44.3728C83.9699 44.7437 83.8463 45.0735 83.5989 45.3208C83.3516 45.5681 83.0218 45.6918 82.6508 45.6918H81.7027V47.1756H81.1668V43.0126H82.6508V43.0538ZM77.2919 46.681H79.2293V47.2169H76.756V43.0538H79.1881V43.5896H77.2919V44.8674H79.0232V45.4032H77.2919V46.681ZM71.933 46.681H73.788V43.5484H72.2628V45.2384C72.2628 45.8566 72.1391 46.3513 71.933 46.681ZM74.3651 46.681H74.8186V48H74.2827V47.2169H71.562V48H71.0261V46.681H71.3971C71.6444 46.3513 71.7681 45.8566 71.7681 45.1971V43.0126H74.4063V46.681H74.3651ZM68.594 47.2169V44.1255L66.4504 47.2169H65.9969V43.0538H66.5328V46.1864L68.6764 43.0538H69.1298V47.2169H68.594ZM66.7802 42.6004V42.147H68.3878V42.6004H66.7802ZM61.6274 45.7742H63.1114L62.3694 43.7133L61.6274 45.7742ZM63.6473 47.2169L63.3175 46.2688H61.4625L61.1327 47.2169H60.5556L62.0808 43.0538H62.6992L64.2244 47.2169H63.6473ZM57.7525 46.681C57.9173 46.681 58.0822 46.5986 58.2059 46.4749C58.3296 46.3513 58.412 46.1864 58.412 45.9803C58.412 45.8154 58.3296 45.6506 58.2059 45.4857C58.0822 45.362 57.9173 45.2796 57.7525 45.2796H56.5158V46.6398H57.7525V46.681ZM57.6288 43.5484H56.5158V44.8262H57.6288C57.7937 44.8262 57.9586 44.785 58.0822 44.6613C58.2059 44.5377 58.2471 44.3728 58.2471 44.2079C58.2471 44.043 58.2059 43.8782 58.0822 43.7545C57.9586 43.6308 57.7937 43.5484 57.6288 43.5484ZM58.3296 45.0323C58.5357 45.1147 58.6593 45.2384 58.783 45.4445C58.9067 45.6093 58.9479 45.8154 58.9479 46.0215C58.9479 46.3513 58.8242 46.6398 58.6181 46.8459C58.3708 47.052 58.0822 47.1756 57.7525 47.1756H55.9799V43.0126H57.6288C57.9586 43.0126 58.2059 43.1362 58.4532 43.3423C58.6593 43.5484 58.783 43.8369 58.783 44.1667C58.783 44.5376 58.6593 44.8262 58.3296 45.0323ZM50.7446 46.2688C51.0332 46.5986 51.4454 46.7222 51.8989 46.7222C52.3523 46.7222 52.7233 46.5574 53.0531 46.2688C53.3416 45.9391 53.5065 45.5681 53.5065 45.1147C53.5065 44.6613 53.3416 44.2491 53.0531 43.9606C52.7645 43.6308 52.3523 43.5072 51.8989 43.5072C51.4454 43.5072 51.0744 43.6721 50.7446 43.9606C50.4561 44.2903 50.2912 44.6613 50.2912 45.1147C50.2912 45.5681 50.4561 45.9803 50.7446 46.2688ZM53.3829 46.6398C52.9706 47.052 52.476 47.2581 51.8576 47.2581C51.2393 47.2581 50.7446 47.052 50.3324 46.6398C49.9202 46.2276 49.7141 45.6918 49.7141 45.1147C49.7141 44.4964 49.9202 44.0018 50.3324 43.5896C50.7446 43.1774 51.2393 42.9713 51.8576 42.9713C52.476 42.9713 52.9706 43.1774 53.3829 43.5896C53.7951 44.0018 54.0012 44.5377 54.0012 45.1147C54.0424 45.733 53.7951 46.2276 53.3829 46.6398ZM46.7048 45.1971C46.9522 45.1971 47.1171 45.1147 47.2819 44.9498C47.4468 44.785 47.4881 44.5789 47.4881 44.3728C47.4881 44.1255 47.4056 43.9194 47.2819 43.7957C47.1171 43.6308 46.9522 43.5484 46.7048 43.5484H45.7567V45.1971H46.7048ZM46.7048 43.0538C47.0758 43.0538 47.4056 43.1774 47.653 43.4248C47.9003 43.6721 48.024 44.0018 48.024 44.3728C48.024 44.7437 47.9003 45.0735 47.653 45.3208C47.4056 45.5681 47.0758 45.6918 46.7048 45.6918H45.7567V47.1756H45.2208V43.0126H46.7048V43.0538ZM42.9948 43.0538V47.2169H42.4589V43.5896H40.5627V47.2169H40.0268V43.0538H42.9948ZM36.6878 43.0538V43.5896H35.4511V47.2169H34.9152V43.5896H33.6785V43.0538H36.6878ZM30.1746 46.681H32.1121V47.2169H29.6387V43.0538H32.0709V43.5896H30.1746V44.8674H31.906V45.4032H30.1746V46.681ZM26.8768 43.0538H27.4127V47.2169H26.8768V45.362H24.8569V47.2169H24.321V43.0538H24.8569V44.8262H26.8768V43.0538ZM21.0232 45.1971C21.2706 45.1971 21.4355 45.1147 21.6004 44.9498C21.7653 44.785 21.8065 44.5789 21.8065 44.3728C21.8065 44.1255 21.724 43.9194 21.6004 43.7957C21.4355 43.6308 21.2706 43.5484 21.0232 43.5484H20.0751V45.1971H21.0232ZM21.0232 43.0538C21.3942 43.0538 21.724 43.1774 21.9714 43.4248C22.2187 43.6721 22.3424 44.0018 22.3424 44.3728C22.3424 44.7437 22.2187 45.0735 21.9714 45.3208C21.724 45.5681 21.3942 45.6918 21.0232 45.6918H20.0751V47.1756H19.5392V43.0126H21.0232V43.0538ZM15.6643 46.681H17.6018V47.2169H15.1284V43.0538H17.5606V43.5896H15.6643V44.8674H17.3957V45.4032H15.6643V46.681ZM13.2734 43.0538V43.5896H12.0368V47.2169H11.5009V43.5896H10.2642V43.0538H13.2734ZM7.87328 43.0538H8.40917V47.2169H7.87328V45.362H5.85338V47.2169H5.31749V43.0538H5.85338V44.8262H7.87328V43.0538ZM2.59681 47.2169V44.1255L0.45324 47.2169H0.0410156V43.0538H0.576908V46.1864L2.72048 43.0538H3.17392V47.2169H2.59681Z" fill="white"/>
</svg>
