<svg width="40" height="41" viewBox="0 0 40 41" fill="none" xmlns="http://www.w3.org/2000/svg">
<path d="M20 40.2183C31.0457 40.2183 40 31.264 40 20.2183C40 9.17257 31.0457 0.218262 20 0.218262C8.9543 0.218262 0 9.17257 0 20.2183C0 31.264 8.9543 40.2183 20 40.2183Z" fill="#D22730"/>
<path d="M26.6914 12.1193H13.3087C10.6831 12.1193 8.55469 14.2478 8.55469 16.8734V23.5634C8.55469 26.189 10.6832 28.3175 13.3087 28.3175H26.6914C29.317 28.3175 31.4455 26.1889 31.4455 23.5634V16.8734C31.4455 14.2478 29.317 12.1193 26.6914 12.1193ZM23.4762 20.5439L17.2168 23.5292C17.0499 23.6088 16.8572 23.4873 16.8572 23.3025V17.1452C16.8572 16.9577 17.055 16.8362 17.222 16.921L23.4814 20.0929C23.6678 20.1872 23.6645 20.4542 23.4762 20.5439Z" fill="white"/>
</svg>
